<svg width="420" height="370" viewBox="0 0 420 370" xmlns="http://www.w3.org/2000/svg">
<defs>
<linearGradient id="cpF" x1="0" y1="0" x2="0" y2="1">
<stop offset="0%" stop-color="#E8E8E8"/>
<stop offset="40%" stop-color="#DEDEDE"/>
<stop offset="100%" stop-color="#CECECE"/>
</linearGradient>
<linearGradient id="cpT" x1="0" y1="0" x2="0.3" y2="1">
<stop offset="0%" stop-color="#F0F0F0"/>
<stop offset="100%" stop-color="#E2E2E2"/>
</linearGradient>
<linearGradient id="cpS" x1="0" y1="0" x2="0" y2="1">
<stop offset="0%" stop-color="#D0D0D0"/>
<stop offset="50%" stop-color="#C2C2C2"/>
<stop offset="100%" stop-color="#B0B0B0"/>
</linearGradient>
<linearGradient id="dpF" x1="0" y1="0" x2="0" y2="1">
<stop offset="0%" stop-color="#5A5E64"/>
<stop offset="40%" stop-color="#50545A"/>
<stop offset="100%" stop-color="#444850"/>
</linearGradient>
<linearGradient id="scrP" x1="0" y1="0" x2="0" y2="1">
<stop offset="0%" stop-color="#D0EAFF"/>
<stop offset="30%" stop-color="#E8F4FF"/>
<stop offset="100%" stop-color="#C8E2F8"/>
</linearGradient>
<linearGradient id="scrGlP" x1="0" y1="0" x2="1" y2="1">
<stop offset="0%" stop-color="#fff" stop-opacity="0.25"/>
<stop offset="50%" stop-color="#fff" stop-opacity="0.05"/>
<stop offset="100%" stop-color="#000" stop-opacity="0.04"/>
</linearGradient>
<linearGradient id="hlP" x1="0" y1="0" x2="0" y2="1">
<stop offset="0%" stop-color="#fff" stop-opacity="0.2"/>
<stop offset="100%" stop-color="#fff" stop-opacity="0"/>
</linearGradient>
<linearGradient id="btnG" x1="0" y1="0" x2="0" y2="1">
<stop offset="0%" stop-color="#AAA"/>
<stop offset="100%" stop-color="#888"/>
</linearGradient>
</defs>
<rect x="88" y="48" width="252" height="262" rx="4" fill="#000" opacity="0.04" transform="translate(3,3)"/>
<path d="M82,44 Q82,40 86,40 L336,40 Q340,40 340,44 L340,304 Q340,308 336,308 L86,308 Q82,308 82,304 Z" fill="url(#cpF)" stroke="#B8B8B8" stroke-width="0.5"/>
<polygon points="82,40 100,28 358,28 340,40" fill="url(#cpT)" stroke="#B8B8B8" stroke-width="0.4"/>
<polygon points="340,40 358,28 358,294 340,308" fill="url(#cpS)" stroke="#B8B8B8" stroke-width="0.4"/>
<rect x="84" y="40" width="254" height="3" rx="1" fill="url(#hlP)"/>
<line x1="83" y1="44" x2="83" y2="304" stroke="#fff" stroke-width="0.5" opacity="0.12"/>
<text x="324" y="58" font-family="Arial, Helvetica, sans-serif" font-size="11" font-weight="800" fill="#8B3A3A" letter-spacing="1" text-anchor="end">NOXERIOR</text>
<text x="324" y="68" font-family="Arial, Helvetica, sans-serif" font-size="5" font-weight="400" fill="#888" letter-spacing="0.3" text-anchor="end">Next Generation Gas Solutions</text>
<path d="M135,80 Q135,76 142,74 L265,74 Q272,76 272,80 L272,205 Q272,210 265,212 L142,212 Q135,210 135,205 Z" fill="url(#dpF)" stroke="#3A3E44" stroke-width="0.5"/>
<rect x="148" y="90" width="112" height="82" rx="3" fill="#1A1A1A"/>
<rect x="151" y="93" width="106" height="76" rx="2.5" fill="url(#scrP)"/>
<rect x="151" y="93" width="106" height="76" rx="2.5" fill="url(#scrGlP)"/>
<rect x="151" y="93" width="106" height="12" rx="2.5" fill="#2B8FCE" opacity="0.8"/>
<rect x="155" y="97" width="42" height="4" rx="1" fill="#fff" opacity="0.4"/>
<rect x="158" y="112" width="20" height="10" rx="1.5" fill="#fff" stroke="#CCC" stroke-width="0.3"/>
<text x="164" y="120" font-family="monospace" font-size="6" fill="#333">1</text>
<text x="183" y="120" font-family="Arial" font-size="6" fill="#555">NL/min</text>
<rect x="158" y="130" width="13" height="25" rx="1" fill="#2196F3" opacity="0.6"/>
<rect x="174" y="138" width="13" height="17" rx="1" fill="#F44336" opacity="0.5"/>
<rect x="190" y="134" width="13" height="21" rx="1" fill="#4CAF50" opacity="0.6"/>
<rect x="206" y="141" width="13" height="14" rx="1" fill="#FF9800" opacity="0.5"/>
<rect x="228" y="112" width="24" height="40" rx="2" fill="#0A2E1A"/>
<text x="231" y="132" font-family="monospace" font-size="8" fill="#33FF66" opacity="0.9">93.5</text>
<text x="232" y="145" font-family="monospace" font-size="5" fill="#33FF66" opacity="0.6">%O2</text>
<rect x="150" y="185" width="22" height="12" rx="2" fill="url(#btnG)" stroke="#777" stroke-width="0.3"/>
<text x="161" y="194" font-family="Arial" font-size="5.5" font-weight="600" fill="#333" text-anchor="middle">F1</text>
<rect x="176" y="185" width="22" height="12" rx="2" fill="url(#btnG)" stroke="#777" stroke-width="0.3"/>
<text x="187" y="194" font-family="Arial" font-size="5.5" font-weight="600" fill="#333" text-anchor="middle">F2</text>
<rect x="202" y="185" width="22" height="12" rx="2" fill="url(#btnG)" stroke="#777" stroke-width="0.3"/>
<text x="213" y="194" font-family="Arial" font-size="5.5" font-weight="600" fill="#333" text-anchor="middle">F3</text>
<rect x="228" y="185" width="22" height="12" rx="2" fill="url(#btnG)" stroke="#777" stroke-width="0.3"/>
<text x="239" y="194" font-family="Arial" font-size="5.5" font-weight="600" fill="#333" text-anchor="middle">F4</text>
<circle cx="306" cy="145" r="13" fill="#D0D0D0" stroke="#AAA" stroke-width="0.5"/>
<circle cx="306" cy="145" r="9.5" fill="#E8E8E8" stroke="#BBB" stroke-width="0.3"/>
<circle cx="306" cy="145" r="4" fill="#555"/>
<rect x="304" y="138" width="4" height="9" rx="1" fill="#333"/>
<rect x="297" y="134" width="18" height="4.5" rx="2" fill="#222"/>
<text x="211" y="262" font-family="Arial, Helvetica, sans-serif" font-size="16" font-weight="700" fill="#777" letter-spacing="2" text-anchor="middle">MEDGAS FLOW</text>
</svg>
